<svg width="14" height="14" viewBox="0 0 14 14" fill="none" xmlns="http://www.w3.org/2000/svg">
<path d="M11.0208 10.078L13.8762 12.9327L12.9328 13.876L10.0782 11.0207C9.01599 11.8721 7.69483 12.3353 6.3335 12.3333C3.0215 12.3333 0.333496 9.64533 0.333496 6.33333C0.333496 3.02133 3.0215 0.333328 6.3335 0.333328C9.6455 0.333328 12.3335 3.02133 12.3335 6.33333C12.3354 7.69466 11.8723 9.01582 11.0208 10.078ZM9.6835 9.58333C10.5296 8.71325 11.0021 7.54695 11.0002 6.33333C11.0002 3.75466 8.9115 1.66666 6.3335 1.66666C3.75483 1.66666 1.66683 3.75466 1.66683 6.33333C1.66683 8.91133 3.75483 11 6.3335 11C7.54712 11.0019 8.71342 10.5294 9.5835 9.68333L9.6835 9.58333Z" fill="#151515"/>
</svg>
