<svg width="16" height="16" viewBox="0 0 16 16" fill="none" xmlns="http://www.w3.org/2000/svg">
<g clip-path="url(#clip0_877_125903)">
<path d="M11.334 3.99992H14.6673V5.33325H13.334V13.9999C13.334 14.1767 13.2637 14.3463 13.1387 14.4713C13.0137 14.5963 12.8441 14.6666 12.6673 14.6666H3.33398C3.15717 14.6666 2.9876 14.5963 2.86258 14.4713C2.73756 14.3463 2.66732 14.1767 2.66732 13.9999V5.33325H1.33398V3.99992H4.66732V1.99992C4.66732 1.82311 4.73756 1.65354 4.86258 1.52851C4.9876 1.40349 5.15717 1.33325 5.33398 1.33325H10.6673C10.8441 1.33325 11.0137 1.40349 11.1387 1.52851C11.2637 1.65354 11.334 1.82311 11.334 1.99992V3.99992ZM12.0007 5.33325H4.00065V13.3333H12.0007V5.33325ZM6.00065 7.33325H7.33398V11.3333H6.00065V7.33325ZM8.66732 7.33325H10.0007V11.3333H8.66732V7.33325ZM6.00065 2.66659V3.99992H10.0007V2.66659H6.00065Z" fill="#313131"/>
</g>
<defs>
<clipPath id="clip0_877_125903">
<rect width="16" height="16" fill="white"/>
</clipPath>
</defs>
</svg>
